<svg xmlns="http://www.w3.org/2000/svg" xmlns:xlink="http://www.w3.org/1999/xlink" width="273.15" height="111.15" viewBox="0 0 273.15 111.15">
  <defs>
    <linearGradient id="linear-gradient" x1="-0.029" y1="-1.158" x2="1.063" y2="0.432" gradientUnits="objectBoundingBox">
      <stop offset="0" stop-color="#3b87ca"/>
      <stop offset="1" stop-color="#5f3a9a"/>
    </linearGradient>
  </defs>
  <path id="패스_12" data-name="패스 12" d="M93.6-46.35v19.2H69.45V9.15H52.65v-36.3H8.1v-74.1H29.4v54.9H52.65V-95.1h16.8v48.75ZM133.35,7.5A39.392,39.392,0,0,1,122.7,6.075a24.74,24.74,0,0,1-9-4.575,22.248,22.248,0,0,1-6.225-8.25,30.328,30.328,0,0,1-2.325-12.6V-75a23.1,23.1,0,0,1,3.3-12.675A26.466,26.466,0,0,1,116.775-96a36.678,36.678,0,0,1,10.875-4.575A45.868,45.868,0,0,1,138.45-102h6.9a51.773,51.773,0,0,1,12,1.425,31.91,31.91,0,0,1,10.725,4.65,24.741,24.741,0,0,1,7.65,8.4A25.413,25.413,0,0,1,178.65-74.85V-20.7a30.817,30.817,0,0,1-2.025,11.325,25.185,25.185,0,0,1-5.85,8.925A26.667,26.667,0,0,1,161.4,5.4a34.961,34.961,0,0,1-12.45,2.1ZM143.4-12.6a7.021,7.021,0,0,0,4.05-1.125,8.71,8.71,0,0,0,2.7-3,12.64,12.64,0,0,0,1.425-4.2,30.6,30.6,0,0,0,.375-4.875V-75a26.807,26.807,0,0,0-.45-4.95,16.461,16.461,0,0,0-1.425-4.35,8.188,8.188,0,0,0-2.55-3.075A6.67,6.67,0,0,0,143.55-88.5h-6.6a9.689,9.689,0,0,0-4.65,1.125,12.847,12.847,0,0,0-3.75,3.075A14.644,14.644,0,0,0,126-79.95a13.987,13.987,0,0,0-.9,4.95v54.075a8.966,8.966,0,0,0,.975,4.2,6.891,6.891,0,0,0,3.525,3,19.359,19.359,0,0,0,7.5,1.125ZM281.25-46.35v19.2H257.1V9.15H240.3v-36.3H195.75v-74.1h21.3v54.9H240.3V-95.1h16.8v48.75Z" transform="translate(-8.1 102)" fill="url(#linear-gradient)"/>
</svg>
