<svg xmlns="http://www.w3.org/2000/svg" viewBox="0 0 36 36"><g id="레이어_2" data-name="레이어 2"><g id="레이어_1-2" data-name="레이어 1"><path d="M18,26.34a.6.6,0,0,1-.52-.31l-1.85-3.19a.59.59,0,0,1,0-.6.6.6,0,0,1,.53-.3h3.68a.6.6,0,0,1,.53.3.59.59,0,0,1,0,.6L18.52,26A.6.6,0,0,1,18,26.34Z"/><path d="M19.84,22a.55.55,0,0,1,.49.29.56.56,0,0,1,0,.56L18.49,26a.56.56,0,0,1-1,0l-1.84-3.19a.56.56,0,0,1,0-.56.55.55,0,0,1,.49-.29h3.68m0-.07H16.16a.64.64,0,0,0-.56,1l1.84,3.19a.64.64,0,0,0,1.12,0l1.84-3.19a.64.64,0,0,0-.56-1Z"/><path d="M18,36a17.3,17.3,0,0,1-2.35-.16L17.59,27a.42.42,0,0,1,.82,0l1.91,8.81C19.55,35.91,18.76,36,18,36Z"/><path d="M18,26.75a.36.36,0,0,1,.37.3l1.89,8.72a17.1,17.1,0,0,1-4.52,0l1.89-8.72a.36.36,0,0,1,.37-.3m0-.08a.45.45,0,0,0-.45.36l-1.91,8.81A18.46,18.46,0,0,0,18,36h0a18.46,18.46,0,0,0,2.36-.16L18.45,27a.45.45,0,0,0-.45-.36Z"/><path d="M7.84,32.88A18,18,0,0,1,18,0,18,18,0,0,1,28.17,32.81v-6.7c-.85-1.28-4-5.41-8.93-6a6.63,6.63,0,0,0,5.55-6.59,6.79,6.79,0,1,0-8,6.67c-5.11.57-8.33,5-8.92,5.91Z"/><path d="M18,.08A17.92,17.92,0,0,1,28.2,32.73V26.06c-.81-1.21-3.77-5.15-8.51-5.94a6.83,6.83,0,1,0-3.36,0c-4.87.83-7.93,5.08-8.51,5.94v6.67A17.92,17.92,0,0,1,18,.08M18,0h0A18,18,0,0,0,0,18H0A18,18,0,0,0,7.88,32.88V26.11c.45-.68,3.65-5.32,8.89-6a6.74,6.74,0,0,1-5.52-6.63h0a6.75,6.75,0,0,1,13.5,0h0a6.74,6.74,0,0,1-5.51,6.63c5.23.64,8.36,5.18,8.88,6v6.77A18,18,0,0,0,36,18h0A18,18,0,0,0,18,0Z"/></g></g></svg>