<svg xmlns="http://www.w3.org/2000/svg" viewBox="0 0 96 72"><defs><style>.cls-1{fill:#666;}</style></defs><g id="레이어_2" data-name="레이어 2"><g id="레이어_1-2" data-name="레이어 1"><path class="cls-1" d="M91.37,3.2A1.43,1.43,0,0,1,92.8,4.63V67.37a1.43,1.43,0,0,1-1.43,1.43H4.63A1.43,1.43,0,0,1,3.2,67.37V4.63A1.43,1.43,0,0,1,4.63,3.2H91.37m0-3.2H4.63A4.63,4.63,0,0,0,0,4.63V67.37A4.63,4.63,0,0,0,4.63,72H91.37A4.63,4.63,0,0,0,96,67.37V4.63A4.63,4.63,0,0,0,91.37,0Z"/><path class="cls-1" d="M61.46,17.55c0-.51,0-1,0-1.54v-.32c0-.17,0-.13,0,.1l.06-.19c.08-.32-.15.29,0,0,.06-.12.12-.24.17-.36.2-.41.43-.81.67-1.2.07-.1.13-.21.2-.32s.17-.19.16-.23q-.21.27-.06.09l.09-.11.22-.24a.9.9,0,0,0,.16-.18c.11-.11.07-.08-.13.08.14-.07.09-.06-.13.06a.75.75,0,0,1-.88-.26c-.31-.3-.4-.36-.27-.17s.27.35.39.5l.4.48.12.14q-.21-.27-.06-.06c0,.09.11.18.17.27l.39.62a3.07,3.07,0,0,1,.17.31c.18.35-.06-.23,0,.06s.13.45.18.68,0-.33,0,0c0,.14,0,.27,0,.41a1.5,1.5,0,1,0,3,0,5.86,5.86,0,0,0-.85-3.06,12.35,12.35,0,0,0-.92-1.35l-.4-.47s-.24-.29-.09-.12,0,0,0,0a2.48,2.48,0,0,0-.29-.37,2,2,0,0,0-2.41-.29,4,4,0,0,0-1,.95A11.36,11.36,0,0,0,59,14a4.32,4.32,0,0,0-.51,2c0,.55,0,1.1,0,1.65a1.5,1.5,0,1,0,3,0Z"/><path class="cls-1" d="M71.81,16.22c0-.31,0-.62,0-.93s-.06.22,0-.09.07-.33.11-.49A13.44,13.44,0,0,1,72.43,13c0-.06.15-.43,0-.08a3,3,0,0,1,.19-.41c.11-.23.23-.46.36-.68a1.54,1.54,0,0,1,.23-.37q-.18.24,0,.06l.29-.36c.07-.1.06-.1,0,0a1,1,0,0,1-.88.43c.69,0-1.11-1-.83-.53a7.47,7.47,0,0,0,.63.85l.3.39.16.2c-.11-.15-.12-.15,0,0,.35.46.69.92,1,1.39s.64.93.9,1.42c0,0,.22.43.12.22s.08.21.09.25c.09.23.18.46.28.68a.91.91,0,0,0,.09.17c.07.15.06.11-.06-.11a1.51,1.51,0,0,0,1.85,1.05,1.54,1.54,0,0,0,1.05-1.84,2.83,2.83,0,0,0-.23-.57s0-.11-.07-.13.12.29.05.12c-.12-.34-.26-.67-.41-1a8.67,8.67,0,0,0-.79-1.35c-.66-1-1.38-1.91-2.1-2.84l-.11-.15s.17.24,0,0l-.18-.26a2,2,0,0,0-1.09-.88A2,2,0,0,0,71,9.54c-.12.23.22-.25,0,0s-.27.34-.4.51a5.45,5.45,0,0,0-.39.66,13.69,13.69,0,0,0-.73,1.66A12.16,12.16,0,0,0,69,14a9.36,9.36,0,0,0-.19,2.18,1.5,1.5,0,0,0,3,0Z"/><path class="cls-1" d="M60.26,23.23A74.37,74.37,0,0,0,70.77,22a34.08,34.08,0,0,0,4.5-.88c.77-.22,1.56-.33,2.34-.5.47-.11.94-.22,1.41-.3.11,0,1.25-.24.86-.19a1.55,1.55,0,0,0,1.5-1.5,1.5,1.5,0,0,0-1.5-1.5c-3.09.37-6.08,1.36-9.15,1.86a66.16,66.16,0,0,1-10.47,1.23,1.5,1.5,0,0,0,0,3Z"/><path class="cls-1" d="M58.91,22.94c.06,1.31,1,2,1.91,2.72s1.84,1.67,2.84,2.38a29,29,0,0,0,3.43,1.85,10.16,10.16,0,0,0,2.07.79,13,13,0,0,0,2.06.59c1.26.1,2.76.08,3.53-1.07S76.36,28.13,77.1,27c1.5-2.21,3.35-4.57,3.48-7.35.09-1.93-2.91-1.92-3,0s-1.69,3.73-2.7,5.28a22.9,22.9,0,0,1-1.94,2.53,3.76,3.76,0,0,0-.48.65l-.11.22c-.13.21,0,.18.25-.09-.36-.15-.89.06-1.27,0s-1-.36-1.53-.5a6.23,6.23,0,0,1-1.49-.61c-.82-.45-1.71-.75-2.5-1.25A14.49,14.49,0,0,1,63.47,24a12.92,12.92,0,0,0-1.06-.9l-.3-.24-.18-.16c-.22-.28-.23-.2,0,.22-.09-1.92-3.09-1.93-3,0Z"/><path class="cls-1" d="M51.21,7.68a51.8,51.8,0,0,1-1,6.74,22.12,22.12,0,0,0-.21,6.29,16,16,0,0,0,2,5.49,29.29,29.29,0,0,0,3.16,5.05c2.69,3.18,5.64,6,9.56,7.52a27.21,27.21,0,0,0,12.55,1.52c4.3-.51,9.46-1.58,12.49-4.89,1.3-1.42-.82-3.55-2.12-2.12-2.36,2.58-6.3,3.33-9.63,3.9a25.6,25.6,0,0,1-11.3-.89c-3.64-1.1-6.29-3.61-8.76-6.4a22.47,22.47,0,0,1-3-4.45,17.55,17.55,0,0,1-1.92-4.71,18.93,18.93,0,0,1,.2-6.41,52,52,0,0,0,.92-6.64,1.5,1.5,0,0,0-3,0Z"/><path class="cls-1" d="M8.73,55.91c.21-1,1.3-2.1,1.87-2.95.71-1.06,1.45-2.09,2.17-3.13,1.34-1.91,2.66-3.84,4.06-5.71,2.71-3.62,5.92-6.88,8.53-10.56H22.77c.94,2.2,2.9,3.92,4.46,5.69,1.94,2.19,3.89,4.36,5.79,6.56s3.58,4.25,5.35,6.39c.84,1,1.71,2,2.54,3.08.54.69,1.22,2,2.06,2.35a1.52,1.52,0,0,0,2.2-.9c.32-1.39,2.19-2.6,3.19-3.55,1.37-1.29,2.75-2.55,4.12-3.83s2.6-2.48,3.8-3.81c.46-.51.9-1,1.39-1.54s.83-1.27,1.29-1.64L56.4,41.3c0,2.6,2,5.18,3.38,7.3,1.56,2.42,3,4.89,4.51,7.35a1.52,1.52,0,0,0,2.36.3l0,0c1.41-1.33-.72-3.45-2.12-2.12l-.06.05,2.36.3c-1.35-2.22-2.6-4.5-4-6.66-.62-.93-1.18-1.89-1.76-2.84s-1.65-2.32-1.67-3.63a1.52,1.52,0,0,0-2.56-1.07A18.53,18.53,0,0,0,55.39,42c-.53.55-1,1.14-1.53,1.7-1.33,1.44-2.75,2.81-4.19,4.13s-3,2.74-4.42,4.12c-1.21,1.15-2.58,2.25-3,3.95l2.2-.9c.12.05.16.24.05,0a4.56,4.56,0,0,0-.52-.66c-.42-.54-.84-1.08-1.27-1.61-.79-1-1.6-1.94-2.4-2.91-1.72-2.08-3.43-4.16-5.19-6.2s-3.54-4-5.31-6c-1.55-1.76-3.55-3.46-4.48-5.64-.49-1.13-2-.8-2.59,0-1.29,1.82-2.87,3.45-4.3,5.15C16.9,39.07,15.42,41,14,43S11.08,47,9.64,49.08c-.73,1.05-1.46,2.11-2.17,3.17a8.82,8.82,0,0,0-1.64,2.86c-.39,1.89,2.5,2.69,2.9.8Z"/></g></g></svg>