<svg xmlns="http://www.w3.org/2000/svg" xmlns:xlink="http://www.w3.org/1999/xlink" viewBox="0 0 63.69 36.5"><defs><style>.cls-1{fill:url(#무제_그라디언트_5);}</style><linearGradient id="무제_그라디언트_5" x1="-4" y1="18.25" x2="68" y2="18.25" gradientUnits="userSpaceOnUse"><stop offset="0" stop-color="#29abe2"/><stop offset="0.22" stop-color="#3e80c6"/><stop offset="0.45" stop-color="#4f5caf"/><stop offset="0.66" stop-color="#5c429f"/><stop offset="0.85" stop-color="#633295"/><stop offset="1" stop-color="#662d91"/></linearGradient></defs><g id="레이어_2" data-name="레이어 2"><g id="레이어_1-2" data-name="레이어 1"><path class="cls-1" d="M61.44,14.35,38.06.85a4.5,4.5,0,0,0-5.15.48,4.51,4.51,0,0,0-1.58,2A4.5,4.5,0,0,0,27,0H9A4.5,4.5,0,0,0,9,9H4.5a4.5,4.5,0,0,0,0,9h9a9,9,0,0,0,0,18h9A9,9,0,0,0,31,29.94V32a4.5,4.5,0,0,0,9,0V12.37l16.94,9.78a4.5,4.5,0,0,0,4.5-7.8ZM31,24.06A9,9,0,0,0,22.5,18H31ZM31,9H27a4.48,4.48,0,0,0,4-2.48Z"/></g></g></svg>